<svg xmlns="http://www.w3.org/2000/svg" xmlns:xlink="http://www.w3.org/1999/xlink" width="181.5" height="55.1"><style>.st1{fill:none;stroke:#d52b29;stroke-width:2.0332;stroke-miterlimit:10}.st2{fill:#f9e651}.st6,.st7{clip-path:url(#SVGID_4_)}.st6{stroke:#fff;stroke-miterlimit:10}.st7{fill:#3086c1}</style><path d="M61.5 2.3h51v51h-51v-51z" fill="#e74547"/><path class="st1" d="M61.5 2.3H85V38H61.5V2.3zM85.1 2.3h27.5v20.5H85.1V2.3zM85.1 22.9h27.5v17.3H85.1V22.9z"/><path class="st1" d="M85.1 40.1h13.2v13.2H85.1V40.1zM98.3 40.1h8.4v13.2h-8.4V40.1z"/><path class="st1" d="M106.6 40.1h5.9v13.2h-5.9V40.1zM61.5 38H85v15.3H61.5V38z"/><path class="st2" d="M150.2 0l15.6 27.2 15.7 27.1H119l15.6-27.1L150.2 0z"/><path d="M150.2 12.6l12 20.9 12 20.8h-47.9l12-20.8 11.9-20.9z" fill="#ffd340"/><path class="st2" d="M150.2 27.1l7.8 13.6 7.8 13.6h-31.2l7.8-13.6 7.8-13.6z"/><path d="M150.2 39.7l4.2 7.3 4.2 7.3h-16.7l4.2-7.3 4.1-7.3z" fill="#faa934"/><defs><circle id="SVGID_1_" cx="27.2" cy="27.9" r="27.2"/></defs><clipPath id="SVGID_2_"><use xlink:href="#SVGID_1_" overflow="visible"/></clipPath><circle cx="27.2" cy="27.9" r="27.2" clip-path="url(#SVGID_2_)" fill="#3f96d2"/><g><defs><circle id="SVGID_3_" cx="27.2" cy="27.9" r="27.2"/></defs><clipPath id="SVGID_4_"><use xlink:href="#SVGID_3_" overflow="visible"/></clipPath><path class="st6" d="M17.77 35.65c-.04-.04-.07-.09-.1-.14.04.05.07.1.1.14zM18.57 36.53c-.11-.11-.2-.22-.3-.33.1.11.19.22.3.33zM19.45 37.33c-.19-.16-.36-.33-.54-.49.17.16.35.33.54.49zM25.96 40.04a12.187 12.187 0 000 0zM27.2 40.1c6.8 0 12.2-5.5 12.2-12.2 0 6.7-5.5 12.2-12.2 12.2zM15 27.9z"/><path class="st7" d="M27.2 12.2c11.6 0 21.8 6.3 27.2 15.7C54.4 12.88 42.22.7 27.2.7S0 12.88 0 27.9c5.4-9.4 15.6-15.7 27.2-15.7zM27.2 55.1c15.02 0 27.2-12.18 27.2-27.2a31.35 31.35 0 01-27.2 15.7C15.6 43.6 5.4 37.3 0 27.9c0 15.02 12.18 27.2 27.2 27.2z"/><path d="M27.2 43.6c11.6 0 21.8-6.3 27.2-15.7a31.35 31.35 0 00-27.2-15.7C15.6 12.2 5.4 18.5 0 27.9c5.4 9.4 15.6 15.7 27.2 15.7zm0-27.9c6.7 0 12.2 5.5 12.2 12.2 0 6.7-5.4 12.2-12.2 12.2a12.106 12.106 0 01-7.61-2.66c-.05-.04-.1-.07-.14-.11-.19-.16-.37-.33-.54-.49-.11-.1-.23-.2-.33-.31-.11-.11-.2-.22-.3-.33-.17-.18-.34-.36-.49-.55-.04-.04-.07-.09-.1-.14a12.117 12.117 0 01-2.61-6.37c-.06-.41-.08-.82-.08-1.24 0-6.8 5.5-12.2 12.2-12.2z" clip-path="url(#SVGID_4_)" fill="#55a4d8"/><path d="M17.67 35.52c.04.04.07.09.1.14.16.19.33.37.49.55.1.11.2.23.3.33.11.11.22.2.33.31.18.17.36.34.54.49.05.04.1.07.14.11a12.125 12.125 0 007.61 2.66c6.7 0 12.2-5.5 12.2-12.2 0-6.7-5.5-12.2-12.2-12.2-6.7 0-12.2 5.5-12.2 12.2 0 .42.02.84.06 1.24.26 2.39 1.2 4.58 2.63 6.37zM27.2 23.7a4.2 4.2 0 11.001 8.399A4.2 4.2 0 0127.2 23.7z" clip-path="url(#SVGID_4_)" fill="#e1edee"/><path class="st7" d="M27.2 32.1c2.3 0 4.2-1.9 4.2-4.2 0-2.3-1.9-4.2-4.2-4.2-2.3 0-4.2 1.9-4.2 4.2 0 2.3 1.9 4.2 4.2 4.2z"/></g></svg>